<?xml version="1.0" encoding="UTF-8" ?>
<!DOCTYPE svg PUBLIC "-//W3C//DTD SVG 1.1//EN" "http://www.w3.org/Graphics/SVG/1.1/DTD/svg11.dtd">
<svg width="448pt" height="213pt" viewBox="0 0 448 213" version="1.1" xmlns="http://www.w3.org/2000/svg">
<path fill="#ffffff" d=" M 0.00 0.00 L 448.00 0.00 L 448.00 213.00 L 0.00 213.00 L 0.00 0.00 Z" />
<path fill="#8a979b" d=" M 147.46 46.40 C 169.37 27.66 201.66 21.81 228.58 32.43 C 241.73 37.31 253.65 45.60 262.63 56.38 C 269.36 63.98 274.01 73.11 277.74 82.48 C 275.57 82.54 273.41 82.60 271.25 82.66 C 264.95 67.04 254.03 53.11 239.43 44.50 C 216.10 29.95 184.69 29.79 161.23 44.13 C 146.43 52.70 135.27 66.68 128.89 82.44 C 126.75 82.31 124.62 82.18 122.49 82.05 C 127.76 68.38 136.01 55.69 147.46 46.40 Z" />
<path fill="#f58220" d=" M 195.39 54.45 C 200.48 51.42 207.53 56.20 206.53 62.05 C 206.12 67.54 199.07 70.68 194.70 67.39 C 190.05 64.52 190.49 56.82 195.39 54.45 Z" />
<path fill="#f58220" d=" M 202.53 78.17 C 219.26 72.78 236.00 67.42 252.74 62.06 C 241.02 68.99 229.27 75.89 217.54 82.80 C 212.50 114.10 207.53 145.42 202.48 176.71 C 202.35 152.19 202.27 127.66 202.15 103.13 C 200.19 103.13 198.24 103.13 196.28 103.13 C 196.27 127.55 196.31 151.97 196.26 176.39 C 191.37 145.19 186.67 113.96 181.78 82.77 C 170.18 76.06 158.62 69.28 147.04 62.54 C 163.30 67.61 179.55 72.74 195.81 77.85 C 195.85 83.92 195.87 89.99 195.91 96.06 C 197.95 96.07 199.99 96.08 202.03 96.09 C 202.20 90.12 202.37 84.14 202.53 78.17 Z" />
<path fill="#8a979b" d=" M 14.31 87.79 C 17.48 87.77 20.66 87.76 23.83 87.75 C 25.16 91.99 26.46 96.24 27.77 100.49 C 28.92 96.24 30.03 91.98 31.16 87.72 C 34.45 87.70 37.74 87.67 41.03 87.67 C 42.41 96.19 43.82 104.71 45.17 113.24 C 41.98 113.25 38.79 113.25 35.60 113.26 C 35.31 108.62 35.08 103.99 34.85 99.35 C 33.40 103.97 31.99 108.60 30.58 113.23 C 28.64 113.26 26.70 113.29 24.76 113.31 C 23.30 108.87 21.87 104.42 20.41 99.97 C 19.87 104.40 19.34 108.82 18.82 113.24 C 15.82 113.27 12.83 113.29 9.83 113.30 C 11.29 104.79 12.82 96.30 14.31 87.79 Z" />
<path fill="#8a979b" d=" M 66.25 87.73 C 69.80 87.74 73.34 87.76 76.89 87.78 C 79.91 96.28 82.92 104.79 85.89 113.31 C 82.67 113.32 79.45 113.32 76.23 113.30 C 75.97 111.99 75.71 110.69 75.45 109.38 C 73.04 109.40 70.63 109.41 68.22 109.43 C 67.72 110.71 67.22 111.99 66.72 113.28 C 63.48 113.30 60.24 113.32 57.00 113.34 C 60.07 104.80 63.16 96.26 66.25 87.73 Z" />
<path fill="#8a979b" d=" M 100.29 87.79 C 103.08 87.78 105.88 87.78 108.68 87.78 C 108.78 91.37 108.87 94.96 109.00 98.54 C 111.06 94.96 113.12 91.36 115.19 87.79 C 118.59 87.76 121.99 87.74 125.39 87.73 C 123.06 91.80 120.69 95.84 118.35 99.90 C 121.08 104.34 123.85 108.76 126.57 113.21 C 123.00 113.22 119.43 113.22 115.86 113.22 C 113.62 109.73 111.40 106.22 109.17 102.72 C 109.22 106.25 109.28 109.78 109.33 113.31 C 106.30 113.29 103.26 113.27 100.22 113.24 C 100.23 104.76 100.25 96.27 100.29 87.79 Z" />
<path fill="#8a979b" d=" M 140.82 87.79 C 146.68 87.77 152.54 87.77 158.40 87.79 C 158.39 89.97 158.38 92.15 158.37 94.33 C 155.57 94.36 152.76 94.39 149.96 94.42 C 149.96 95.02 149.97 96.23 149.98 96.84 C 152.39 96.86 154.80 96.89 157.22 96.92 C 157.23 98.84 157.25 100.77 157.26 102.70 C 154.90 102.70 152.54 102.70 150.18 102.71 C 150.22 104.01 150.27 105.31 150.31 106.62 C 153.07 106.63 155.83 106.64 158.59 106.66 C 158.60 108.86 158.61 111.07 158.62 113.28 C 152.67 113.29 146.71 113.31 140.76 113.30 C 140.77 104.80 140.79 96.29 140.82 87.79 Z" />
<path fill="#f58220" d=" M 238.10 87.75 C 241.12 87.75 244.15 87.75 247.18 87.75 C 247.22 90.51 247.27 93.27 247.31 96.02 C 249.35 96.00 251.40 95.96 253.44 95.93 C 253.40 93.21 253.37 90.48 253.35 87.75 C 256.45 87.75 259.55 87.75 262.65 87.74 C 262.80 96.24 262.80 104.74 262.87 113.25 C 259.77 113.25 256.67 113.25 253.57 113.25 C 253.56 110.36 253.56 107.48 253.56 104.60 C 251.56 104.60 249.56 104.61 247.57 104.62 C 247.57 107.50 247.56 110.37 247.56 113.25 C 244.48 113.25 241.40 113.25 238.32 113.25 C 238.23 104.75 238.16 96.25 238.10 87.75 Z" />
<path fill="#f58220" d=" M 280.57 87.75 C 283.61 87.75 286.66 87.75 289.72 87.75 C 289.96 93.77 289.15 99.86 290.30 105.82 C 291.83 105.55 294.67 106.28 294.72 103.93 C 295.12 98.55 294.80 93.14 294.98 87.75 C 298.11 87.75 301.24 87.75 304.37 87.75 C 304.30 93.18 304.39 98.61 304.28 104.04 C 304.42 108.03 300.89 110.87 297.56 112.33 C 292.37 114.26 285.89 113.06 282.16 108.83 C 280.63 107.30 280.60 105.04 280.57 103.03 C 280.55 97.94 280.60 92.85 280.57 87.75 Z" />
<path fill="#f58220" d=" M 324.07 87.75 C 327.36 87.75 330.66 87.75 333.96 87.75 C 335.18 92.10 336.38 96.46 337.59 100.82 C 338.77 96.47 339.93 92.11 341.10 87.75 C 344.38 87.75 347.67 87.75 350.96 87.75 C 352.49 96.25 354.01 104.75 355.53 113.25 C 352.44 113.25 349.36 113.25 346.28 113.25 C 345.53 108.42 344.80 103.59 344.03 98.77 C 342.70 103.59 341.43 108.42 340.12 113.25 C 338.37 113.25 336.62 113.25 334.88 113.25 C 333.27 108.50 331.67 103.75 330.06 99.00 C 329.55 103.75 329.04 108.50 328.53 113.25 C 325.62 113.25 322.72 113.25 319.82 113.25 C 321.22 104.75 322.64 96.25 324.07 87.75 Z" />
<path fill="#f58220" d=" M 367.41 113.34 C 370.47 104.79 373.57 96.26 376.66 87.72 C 380.21 87.74 383.75 87.76 387.31 87.78 C 390.31 96.29 393.32 104.79 396.29 113.31 C 393.07 113.31 389.86 113.31 386.65 113.31 C 386.38 112.00 386.11 110.68 385.86 109.37 C 383.43 109.40 381.02 109.42 378.60 109.44 C 378.11 110.72 377.62 112.00 377.14 113.28 C 373.89 113.30 370.65 113.32 367.41 113.34 Z" />
<path fill="#f58220" d=" M 410.51 87.75 C 413.46 87.75 416.43 87.75 419.39 87.75 C 422.01 91.78 424.59 95.83 427.21 99.86 C 427.30 95.83 427.38 91.79 427.47 87.75 C 430.22 87.75 432.99 87.75 435.75 87.75 C 435.74 96.25 435.74 104.75 435.72 113.25 C 432.98 113.25 430.24 113.25 427.52 113.26 C 424.72 108.95 421.98 104.61 419.19 100.30 C 419.19 104.62 419.21 108.93 419.21 113.25 C 416.33 113.25 413.44 113.25 410.57 113.25 C 410.54 104.75 410.51 96.25 410.51 87.75 Z" />
<path fill="#ffffff" d=" M 71.67 97.73 C 72.29 99.67 72.91 101.62 73.53 103.57 C 72.31 103.58 71.08 103.59 69.86 103.60 C 70.46 101.64 71.07 99.68 71.67 97.73 Z" />
<path fill="#ffffff" d=" M 380.28 103.59 C 380.88 101.64 381.48 99.68 382.09 97.73 C 382.70 99.68 383.32 101.64 383.94 103.60 C 382.71 103.59 381.50 103.59 380.28 103.59 Z" />
<path fill="#8a979b" d=" M 118.51 119.29 C 120.59 119.40 122.68 119.51 124.76 119.63 C 127.03 135.83 134.51 151.31 146.15 162.85 C 159.46 176.42 178.07 184.63 197.08 185.21 C 214.49 185.98 232.08 180.47 245.92 169.88 C 261.78 157.95 272.46 139.62 275.26 119.99 C 277.34 119.95 279.42 119.91 281.51 119.87 C 279.35 136.00 272.47 151.49 261.62 163.66 C 249.99 176.92 233.94 186.26 216.65 189.76 C 195.60 194.14 172.89 189.91 154.97 178.00 C 134.97 165.03 121.31 142.96 118.51 119.29 Z" />
</svg>
